<svg xmlns="http://www.w3.org/2000/svg" id="instagram" width="11.727" height="11.727" viewBox="0 0 11.727 11.727">
    <defs>
        <style>
            .cls-1{fill:#ed3c78}
        </style>
    </defs>
    <path id="Path_19" d="M8.552 0H3.173A3.178 3.178 0 0 0 0 3.174v5.379a3.178 3.178 0 0 0 3.174 3.174h5.378a3.178 3.178 0 0 0 3.174-3.174V3.174A3.178 3.178 0 0 0 8.552 0zm2.487 8.553a2.49 2.49 0 0 1-2.487 2.487H3.173A2.49 2.49 0 0 1 .687 8.553V3.174A2.49 2.49 0 0 1 3.173.687h5.379a2.49 2.49 0 0 1 2.487 2.487zm0 0" class="cls-1" transform="translate(0.001 0)"/>
    <path id="Path_20" d="M119.211 116a3.207 3.207 0 1 0 3.207 3.207 3.21 3.21 0 0 0-3.207-3.207zm0 5.726a2.519 2.519 0 1 1 2.519-2.519 2.522 2.522 0 0 1-2.519 2.523zm0 0" class="cls-1" transform="translate(-113.347 -113.347)"/>
    <path id="Path_21" d="M358.924 66.285a.948.948 0 1 0 .948.947.949.949 0 0 0-.948-.947zm0 1.207a.26.26 0 1 1 .26-.26.26.26 0 0 1-.26.261zm0 0" class="cls-1" transform="translate(-349.778 -64.767)"/>
</svg>
