<?xml version="1.0" standalone="no"?>
<!DOCTYPE svg PUBLIC "-//W3C//DTD SVG 20010904//EN"
 "http://www.w3.org/TR/2001/REC-SVG-20010904/DTD/svg10.dtd">
<svg version="1.0" xmlns="http://www.w3.org/2000/svg"
 width="1280.000000pt" height="1280.000000pt" viewBox="0 0 1280.000000 1280.000000"
 preserveAspectRatio="xMidYMid meet">
<metadata>
Created by potrace 1.16, written by Peter Selinger 2001-2019
</metadata>
<g 
    transform="translate(0.000000,1280.000000) scale(0.110000,-0.110000)"
fill="#fff" stroke="none">
<path d="M6435 10634 c-324 -25 -550 -58 -850 -125 -77 -17 -277 -76 -408
-120 -356 -121 -726 -302 -1057 -517 -118 -77 -323 -228 -396 -292 -22 -19
-65 -55 -95 -80 -72 -59 -380 -365 -449 -446 -30 -36 -65 -77 -78 -92 -45 -52
-57 -67 -92 -112 -19 -25 -39 -50 -45 -57 -5 -6 -43 -59 -84 -118 -370 -534
-627 -1119 -751 -1712 -41 -194 -64 -348 -85 -567 -23 -240 -16 -703 14 -949
77 -626 270 -1212 576 -1747 290 -507 630 -912 1086 -1293 l117 -98 -1 -92
c-3 -243 164 -471 424 -579 88 -36 231 -49 320 -28 71 16 210 70 227 87 22 21
52 16 193 -38 361 -137 778 -241 1109 -277 l65 -7 5 -230 c5 -220 7 -234 34
-315 25 -74 97 -200 115 -200 3 0 22 -15 41 -33 74 -68 193 -111 310 -111 219
0 414 139 491 349 20 54 23 84 27 303 4 240 4 242 25 242 43 0 374 59 503 89
465 110 937 301 1339 544 61 37 241 152 245 157 3 4 28 21 55 40 82 55 245
184 390 310 89 77 410 406 465 476 8 11 36 44 61 74 76 92 161 208 256 350
368 552 613 1177 722 1845 117 713 54 1489 -179 2185 -80 240 -161 434 -268
645 -67 132 -174 319 -184 323 -5 2 -8 8 -8 13 0 11 -135 215 -195 296 -84
113 -101 134 -110 146 -6 7 -44 52 -85 101 -334 400 -716 726 -1178 1005 -117
70 -313 176 -387 208 -28 12 -97 43 -155 68 -551 243 -1145 370 -1775 379
-137 2 -272 2 -300 0z m680 -159 c617 -59 1202 -243 1763 -553 l102 -57 -2
-1285 c-2 -707 -6 -1284 -10 -1282 -5 1 -1077 2 -2383 2 l-2375 0 2 1236 3
1236 120 74 c66 40 126 74 133 74 6 0 12 4 12 8 0 10 308 161 465 227 225 96
577 202 845 255 228 45 344 59 685 84 100 8 484 -4 640 -19z m2007 -697 c7 -7
40 -31 73 -52 86 -56 375 -274 405 -306 3 -3 28 -25 55 -49 481 -424 880 -970
1141 -1564 399 -904 488 -1963 244 -2912 -106 -415 -248 -775 -429 -1089 -28
-49 -51 -92 -51 -97 0 -4 -6 -14 -13 -21 -6 -7 -21 -30 -32 -50 -11 -21 -23
-38 -27 -38 -5 0 -8 -5 -8 -10 0 -9 -136 -217 -150 -230 -3 -3 -39 -50 -80
-105 -41 -55 -77 -102 -80 -105 -3 -3 -38 -45 -79 -94 -155 -186 -434 -451
-641 -611 -35 -28 -74 -58 -85 -68 -28 -26 -281 -192 -401 -265 -128 -77 -321
-176 -449 -230 -55 -24 -108 -48 -118 -53 -52 -29 -391 -144 -567 -192 -143
-40 -553 -117 -620 -117 -6 0 -10 295 -10 808 0 621 -3 813 -13 831 -26 53
-66 64 -234 67 -85 2 -162 5 -171 8 -16 5 -17 43 -17 488 0 266 4 497 8 514
10 41 52 79 107 97 25 8 135 25 245 36 232 25 895 101 1135 131 91 11 246 29
345 40 99 12 288 34 420 50 132 16 308 36 390 45 454 47 553 75 617 177 56 90
58 113 58 703 0 586 -6 681 -46 755 -45 82 -116 112 -339 144 l-150 22 -6 309
c-4 199 -10 324 -18 350 -22 74 -75 133 -149 168 -59 27 -79 31 -179 35 l-113
5 0 1243 c0 759 4 1244 9 1244 5 0 16 -6 23 -12z m-5024 -1298 l-3 -1183 -85
2 c-174 4 -296 -36 -347 -114 -33 -50 -61 -145 -68 -233 -7 -79 -8 -80 -37
-86 -17 -3 -66 -6 -110 -6 -104 0 -140 -17 -170 -78 l-23 -47 4 -409 c2 -225
7 -422 12 -438 18 -65 70 -88 226 -104 46 -4 77 -12 85 -22 8 -9 13 -48 13
-106 0 -83 3 -96 31 -146 59 -105 166 -157 346 -167 l97 -6 3 -796 3 -796 29
-70 c33 -78 36 -83 92 -140 176 -180 496 -145 623 68 61 100 63 118 70 447 7
332 10 348 67 402 40 37 74 48 147 48 80 0 132 -29 167 -90 23 -42 25 -57 31
-230 6 -204 17 -251 82 -347 70 -104 219 -183 347 -183 108 0 242 60 301 134
9 12 26 32 38 45 11 13 30 49 42 80 31 81 38 233 38 883 l1 558 1588 2 1587 3
54 22 c63 26 85 44 119 98 43 68 51 135 52 442 0 201 3 284 11 289 21 13 242
17 272 5 17 -7 35 -25 45 -48 15 -34 17 -93 17 -613 0 -665 4 -634 -88 -668
-46 -17 -238 -44 -587 -82 -52 -5 -133 -15 -180 -20 -47 -6 -146 -17 -220 -25
-74 -8 -234 -26 -355 -40 -121 -14 -299 -34 -395 -45 -193 -22 -647 -76 -1011
-120 -305 -37 -381 -66 -430 -162 -45 -87 -49 -143 -49 -665 l0 -493 -27 -1
c-87 -1 -311 -18 -325 -24 -9 -3 -25 -23 -35 -43 -17 -35 -18 -86 -21 -840
l-3 -802 -27 0 c-80 1 -384 56 -587 106 -188 47 -554 170 -579 195 -6 5 -2 17
11 31 66 72 125 244 125 364 -1 187 -155 511 -361 760 -14 17 -35 42 -45 55
-11 13 -55 66 -99 116 -70 82 -84 93 -112 93 -51 0 -101 -26 -125 -65 -12 -20
-27 -41 -33 -48 -7 -7 -34 -46 -62 -87 -27 -41 -53 -79 -58 -85 -63 -81 -246
-365 -292 -453 -15 -28 -31 -52 -36 -52 -10 0 -193 154 -274 231 -168 160
-253 247 -360 373 -27 32 -58 68 -69 80 -10 11 -30 37 -45 56 -14 19 -28 37
-31 40 -14 13 -143 193 -186 260 -27 41 -51 77 -54 80 -6 6 -20 28 -58 95
-304 527 -478 989 -573 1525 -57 322 -73 537 -65 905 6 327 20 469 77 770 55
291 184 704 295 943 202 435 372 712 633 1031 46 57 105 127 130 155 91 101
318 323 421 411 58 50 110 95 117 100 80 69 236 176 245 167 4 -4 7 -541 6
-1192z m5202 -1396 c68 -39 65 -6 65 -759 0 -745 1 -727 -59 -765 -32 -19 -59
-19 -2717 -21 -1975 -1 -2692 2 -2713 10 -41 16 -73 57 -83 105 -5 23 -9 334
-8 692 1 509 4 657 14 682 16 38 49 61 104 70 23 4 1239 8 2702 7 l2660 0 35
-21z m-5736 -465 l37 -40 -3 -264 -3 -265 -43 -42 c-41 -42 -43 -43 -70 -28
l-27 16 -3 294 -2 293 26 39 c15 21 32 38 39 38 7 0 29 -18 49 -41z m2394
-1936 c-5 -725 1 -672 -80 -749 -61 -59 -121 -87 -188 -88 -141 -2 -199 102
-200 359 -1 226 -75 372 -227 447 -147 72 -330 39 -441 -80 -98 -105 -112
-167 -112 -497 0 -294 -8 -345 -63 -403 -49 -52 -77 -62 -167 -62 -103 0 -151
27 -196 111 -18 32 -19 76 -22 822 l-2 787 851 0 851 0 -4 -647z m-1320 -1868
c155 -249 258 -434 277 -499 41 -138 -5 -286 -125 -400 -82 -79 -166 -117
-273 -123 -151 -10 -263 31 -362 132 -77 79 -113 148 -126 242 -9 67 -8 77 10
106 12 20 18 42 14 55 -5 20 35 108 88 196 10 17 22 37 25 45 8 15 87 146 200
328 68 110 77 119 128 118 13 0 54 -57 144 -200z m2366 159 c3 -26 6 -486 6
-1023 0 -1009 -1 -1027 -40 -1101 -46 -89 -116 -142 -216 -167 -116 -29 -239
10 -320 100 -78 87 -74 21 -74 1194 l0 1043 319 0 318 0 7 -46z"/>
</g>
</svg>
