<svg xmlns="http://www.w3.org/2000/svg" viewBox="0 0 139.57 139.57"><defs><style>.cls-1,.cls-2{fill:none;stroke:#231f20;stroke-miterlimit:10;stroke-width:5px;}.cls-2{stroke-dasharray:12;}</style></defs><title>Asset 1</title><g id="Layer_2" data-name="Layer 2"><g id="Layer_1-2" data-name="Layer 1"><path class="cls-1" d="M127.05,34.44a67.24,67.24,0,1,1-25.89-24.19"/><circle class="cls-1" cx="53.59" cy="50.43" r="15.49"/><path class="cls-1" d="M73.31,107.64a8.11,8.11,0,0,0,8.06-9.26C78.49,79.79,67.15,65.92,53.59,65.92S28.69,79.79,25.82,98.38a8.09,8.09,0,0,0,8,9.26Z"/><circle class="cls-1" cx="89.56" cy="54.87" r="12.19"/><path class="cls-1" d="M81.57,99.9h23.51a6.37,6.37,0,0,0,6.34-7.29C109.16,78,100.23,67.06,89.56,67.06c-6.58,0-12.5,4.16-16.6,10.78"/><polyline class="cls-1" points="103.55 33.44 68.59 33.44 68.59 9.96 136.54 9.96 136.54 33.44 117.54 33.44"/><polyline class="cls-1" points="100.55 32.44 106.55 47.93 120.04 32.94"/><line class="cls-2" x1="77.07" y1="21.45" x2="129.04" y2="21.45"/></g></g></svg>