<svg xmlns="http://www.w3.org/2000/svg" width="61.662" height="59.313" viewBox="0 0 61.662 59.313">
    <defs>
        <style>
            .cls-1{fill:none;stroke:#333;stroke-miterlimit:10;stroke-width:1.5px}.cls-2{fill:#231f20}
        </style>
    </defs>
    <g id="Group_111" transform="translate(-612.363 4106.101)">
        <path id="Path_49" d="M548.571 47.175a28.892 28.892 0 1 1-5.9-7.148" class="cls-1" transform="translate(118.38 -4138.22)"/>
        <rect id="Rectangle_46" width="8.555" height="40.697" class="cls-1" rx="2.41" transform="translate(644.187 -4068.3) rotate(-135)"/>
        <path id="Path_55" d="M554.6 111.2l-8.027 3.31a1.033 1.033 0 0 1-1.346-1.351l3.323-8.023" class="cls-1" transform="translate(89.587 -4179.5)"/>
        <path id="Line_6" d="M5.724 5.724L0 0" class="cls-1" transform="translate(663.478 -4098.711)"/>
        <path id="Line_7" d="M0 0L12.95 9.249" class="cls-1" transform="translate(657.474 -4081.663)"/>
        <path id="Path_56" d="M496.81 72.372l21.68-7.53a11.466 11.466 0 0 1 10.433 1.5l3.941 2.817" class="cls-1" transform="translate(117.197 -4156.119)"/>
        <path id="Path_57" d="M500.86 122.065l9.524-3.653a4.52 4.52 0 0 1 4.794 1.008l18.76 18.563" class="cls-1" transform="translate(114.884 -4186.91)"/>
        <path id="Path_58" d="M567.02 126.384v-9.592h11.432V106.38h9.185v15.1" class="cls-1" transform="translate(77.093 -4180.208)"/>
        <path id="Rectangle_47" d="M0 0H2.144V1.891H0z" class="cls-2" transform="translate(657.483 -4071.444)"/>
        <path id="Rectangle_48" d="M0 0H2.144V1.891H0z" class="cls-2" transform="translate(660.382 -4071.444)"/>
        <path id="Rectangle_49" d="M0 0H2.144V1.891H0z" class="cls-2" transform="translate(657.483 -4068.417)"/>
        <path id="Rectangle_50" d="M0 0H2.144V1.891H0z" class="cls-2" transform="translate(660.382 -4068.417)"/>
        <path id="Rectangle_51" d="M0 0H2.144V1.891H0z" class="cls-2" transform="translate(657.483 -4065.389)"/>
        <path id="Rectangle_52" d="M0 0H2.144V1.891H0z" class="cls-2" transform="translate(660.382 -4065.389)"/>
        <path id="Rectangle_53" d="M0 0H2.144V1.891H0z" class="cls-2" transform="translate(657.483 -4062.366)"/>
        <path id="Rectangle_54" d="M0 0H2.144V1.891H0z" class="cls-2" transform="translate(660.382 -4062.366)"/>
        <path id="Rectangle_55" d="M0 0H2.144V1.891H0z" class="cls-2" transform="translate(647.016 -4061.08)"/>
        <path id="Rectangle_56" d="M0 0H2.144V1.891H0z" class="cls-2" transform="translate(647.016 -4058.306)"/>
        <path id="Rectangle_57" d="M0 0H2.144V1.891H0z" class="cls-2" transform="translate(647.016 -4055.531)"/>
        <path id="Rectangle_58" d="M0 0H2.144V1.891H0z" class="cls-2" transform="translate(649.915 -4061.08)"/>
    </g>
</svg>
